<?xml version="1.0" encoding="utf-8"?>
<!-- Generator: Adobe Illustrator 16.0.0, SVG Export Plug-In . SVG Version: 6.00 Build 0)  -->
<!DOCTYPE svg PUBLIC "-//W3C//DTD SVG 1.1//EN" "http://www.w3.org/Graphics/SVG/1.1/DTD/svg11.dtd">
<svg version="1.1" id="Layer_1" xmlns="http://www.w3.org/2000/svg" xmlns:xlink="http://www.w3.org/1999/xlink" x="0px" y="0px"
	 width="50px" height="47.471px" viewBox="0 0 50 47.471" enable-background="new 0 0 50 47.471" xml:space="preserve">
<g id="nXOcJW_1_">
	<g>
		<path fill="#FFFFFF" d="M19.617,47.47c5.113,0,10.226,0,15.338,0c0.09,0,0.181,0,0.271-0.001c5.04-0.028,9.202-1.85,12.183-6.023
			c2.646-3.703,4.021-10.373,0.372-15.532c-1.25-1.769-1.284-3.173,0.063-4.825c0.587-0.72,0.983-1.67,1.23-2.579
			c2.273-8.359-2.831-17.877-12.881-18.331c-7.263-0.328-14.552-0.115-21.829-0.05c-2.658,0.024-5.164,0.846-7.424,2.26
			C2.068,5.435,0.092,10.08,0.044,15.603c-0.083,9.653-0.024,19.308-0.023,28.962c0,2.039,0.862,2.904,2.905,2.905
			C8.49,47.472,14.054,47.471,19.617,47.47z"/>
		<path fill-rule="evenodd" clip-rule="evenodd" fill="#FFFFFF" d="M19.617,47.47c-5.563,0-11.127,0.002-16.691,0
			c-2.042-0.001-2.905-0.866-2.905-2.905c-0.001-9.654-0.06-19.309,0.023-28.962C0.092,10.08,2.068,5.435,6.941,2.388
			c2.26-1.414,4.766-2.236,7.424-2.26c7.277-0.064,14.566-0.278,21.829,0.05c10.051,0.454,15.154,9.972,12.881,18.331
			c-0.248,0.909-0.644,1.859-1.23,2.579c-1.347,1.652-1.313,3.057-0.063,4.825c3.649,5.16,2.273,11.83-0.372,15.532
			c-2.981,4.173-7.144,5.995-12.183,6.023c-0.09,0-0.18,0.001-0.271,0.001C29.843,47.47,24.73,47.47,19.617,47.47z"/>
	</g>
</g>
</svg>
